HIERARCHY
ROOT Hips
{
    OFFSET 0.000000 0.000000 0.000000
    CHANNELS 6 Xposition Yposition Zposition Zrotation Xrotation Yrotation
    JOINT Spine
    {
        OFFSET -0.000000 7.675621 0.000000
        CHANNELS 3 Zrotation Xrotation Yrotation
        JOINT Spine1
        {
            OFFSET -0.000000 18.989058 0.000000
            CHANNELS 3 Zrotation Xrotation Yrotation
            JOINT Neck
            {
                OFFSET -0.000000 20.861160 0.000000
                CHANNELS 3 Zrotation Xrotation Yrotation
                JOINT Head
                {
                    OFFSET -0.000000 14.508796 1.872102
                    CHANNELS 3 Zrotation Xrotation Yrotation
                    End Site
                    {
                        OFFSET -0.000000 18.721025 0.000000
                    }
                }
            }
            JOINT LeftShoulder
            {
                OFFSET 3.803890 16.435163 -0.376809
                CHANNELS 3 Zrotation Xrotation Yrotation
                JOINT LeftArm
                {
                    OFFSET 13.491586 0.000000 0.000000
                    CHANNELS 3 Zrotation Xrotation Yrotation
                    JOINT LeftForeArm
                    {
                        OFFSET 26.595486 0.000000 0.000000
                        CHANNELS 3 Zrotation Xrotation Yrotation
                        JOINT LeftHand
                        {
                            OFFSET 27.333027 0.000000 0.000000
                            CHANNELS 3 Zrotation Xrotation Yrotation
                            End Site
                            {
                                OFFSET 14.040770 0.000000 0.000000
                            }
                        }
                    }
                }
            }
            JOINT RightShoulder
            {
                OFFSET -3.655588 16.435163 -0.376809
                CHANNELS 3 Zrotation Xrotation Yrotation
                JOINT RightArm
                {
                    OFFSET -13.491586 0.000000 0.000000
                    CHANNELS 3 Zrotation Xrotation Yrotation
                    JOINT RightForeArm
                    {
                        OFFSET -26.595486 0.000000 0.000000
                        CHANNELS 3 Zrotation Xrotation Yrotation
                        JOINT RightHand
                        {
                            OFFSET -27.333027 0.000000 0.000000
                            CHANNELS 3 Zrotation Xrotation Yrotation
                            End Site
                            {
                                OFFSET -14.040770 0.000000 0.000000
                            }
                        }
                    }
                }
            }
        }
    }
    JOINT LeftUpLeg
    {
        OFFSET 9.360513 0.000000 0.000000
        CHANNELS 3 Zrotation Xrotation Yrotation
        JOINT LeftLeg
        {
            OFFSET -0.000000 -38.119110 0.000000
            CHANNELS 3 Zrotation Xrotation Yrotation
            JOINT LeftFoot
            {
                OFFSET -0.000000 -45.088081 0.000000
                CHANNELS 3 Zrotation Xrotation Yrotation
                JOINT LeftToeBase
                {
                    OFFSET -0.000000 -6.084333 14.040770
                    CHANNELS 3 Zrotation Xrotation Yrotation
                    End Site
                    {
                        OFFSET -0.000000 0.000000 3.744205
                    }
                }
            }
        }
    }
    JOINT RightUpLeg
    {
        OFFSET -9.360513 0.000000 0.000000
        CHANNELS 3 Zrotation Xrotation Yrotation
        JOINT RightLeg
        {
            OFFSET -0.000000 -38.119110 0.000000
            CHANNELS 3 Zrotation Xrotation Yrotation
            JOINT RightFoot
            {
                OFFSET -0.000000 -45.088081 0.000000
                CHANNELS 3 Zrotation Xrotation Yrotation
                JOINT RightToeBase
                {
                    OFFSET -0.000000 -6.084333 14.040770
                    CHANNELS 3 Zrotation Xrotation Yrotation
                    End Site
                    {
                        OFFSET -0.000000 0.000000 3.744205
                    }
                }
            }
        }
    }
}
MOTION
Frames:    10
Frame Time:    0.008333
2.789857    86.392281    -17.902142    0.293709    -0.452210    -4.799885    -2.917826    -6.930046    2.019265    2.718435    -1.744179    0.767707    2.278935    9.643269    15.154130    -3.924004    6.681067    16.856905    17.214430    -2.034285    -6.194181    -18.301640    4.185994    -1.442680    -1.768085    -4.793564    -1.492671    -8.012461    -4.784532    -0.458407    -17.695623    0.414163    -4.061154    21.936506    -4.226870    6.305089    1.051254    -3.937006    -1.988536    5.998941    -3.958826    -0.765407    1.438821    3.793503    -5.700751    -2.150772    1.931163    -4.144061    12.084931    -4.693564    14.011714    0.000000    0.000000    0.000000    -4.805789    -0.480900    4.162895    8.683838    7.712860    3.178306    -4.852517    -8.411105    -12.713506    0.000000    0.000000    0.000000    
2.784526    86.391731    -17.907137    0.294014    -0.455733    -4.804547    -2.871768    -6.921225    1.974352    2.671435    -1.747922    0.751109    2.205681    9.682203    15.183587    -3.859564    6.645094    16.859224    17.178003    -2.024396    -6.127561    -18.271305    4.341076    -1.392351    -1.760300    -4.882109    -1.592917    -8.034637    -4.876142    -0.433652    -17.720570    0.418928    -3.991164    21.994926    -4.245613    6.322328    1.044432    -3.921921    -1.999402    5.938852    -3.943674    -0.772036    1.463345    3.729271    -5.425724    -2.194095    2.064117    -4.613140    12.121915    -4.699010    14.227395    0.000000    0.000000    0.000000    -4.802202    -0.479135    4.169044    8.682858    7.707832    3.147717    -4.849550    -8.412630    -12.683150    0.000000    0.000000    0.000000    
2.779535    86.390350    -17.913662    0.293328    -0.453462    -4.811240    -2.867612    -6.928935    1.974832    2.666523    -1.735582    0.750890    2.201281    9.684632    15.172898    -3.835891    6.661049    16.843529    17.174017    -2.021939    -6.124805    -18.273012    4.329211    -1.397960    -1.770942    -4.889580    -1.596933    -8.054461    -4.883224    -0.441030    -17.714071    0.418019    -3.986185    21.999521    -4.263170    6.324708    1.056133    -3.904276    -2.006603    5.913672    -3.925252    -0.764875    1.465590    3.720349    -5.409265    -2.189348    2.072903    -4.703802    12.131982    -4.688438    14.305847    0.000000    0.000000    0.000000    -4.798730    -0.490560    4.159113    8.683081    7.718085    3.167440    -4.848938    -8.416003    -12.685555    0.000000    0.000000    0.000000    
2.774117    86.390137    -17.917105    0.292148    -0.463464    -4.819036    -2.863470    -6.929409    1.974258    2.657260    -1.716403    0.750062    2.201102    9.688042    15.165913    -3.808689    6.670081    16.831717    17.175367    -2.026604    -6.125320    -18.278942    4.319579    -1.391824    -1.777752    -4.892091    -1.601602    -8.079844    -4.885746    -0.442057    -17.703913    0.402254    -3.977728    22.009722    -4.240951    6.317975    1.050451    -3.886606    -2.004740    5.907393    -3.908040    -0.772462    1.472152    3.733301    -5.411257    -2.178819    2.064253    -4.663600    12.369015    -4.586926    14.116772    0.000000    0.000000    0.000000    -4.791951    -0.459263    4.165608    8.652446    7.668651    3.211107    -4.828799    -8.399767    -12.663400    0.000000    0.000000    0.000000    
2.768955    86.389175    -17.924063    0.290461    -0.460636    -4.826667    -2.861255    -6.935326    1.977524    2.645574    -1.705345    0.750791    2.179635    9.663348    15.155208    -3.715926    6.698580    16.799616    17.195078    -2.022193    -6.121370    -18.297878    4.300279    -1.407404    -1.787563    -4.894769    -1.593613    -8.092272    -4.887777    -0.450622    -17.685230    0.406465    -3.984693    22.012602    -4.268232    6.337545    1.067948    -3.861806    -2.024092    5.861570    -3.882350    -0.770831    1.478957    3.769427    -5.745724    -2.187298    1.967690    -4.164005    12.375917    -4.583659    13.955307    0.000000    0.000000    0.000000    -4.787382    -0.471152    4.163946    8.653771    7.674046    3.195119    -4.830231    -8.400831    -12.641326    0.000000    0.000000    0.000000    
2.764029    86.389229    -17.929089    0.292052    -0.464015    -4.830306    -2.865575    -6.935983    1.979379    2.643733    -1.695716    0.751211    2.195127    9.661894    15.142046    -3.715969    6.722120    16.790142    17.175322    -2.087956    -6.083166    -18.284082    4.381998    -1.450989    -1.797869    -4.959167    -1.590665    -8.209397    -4.961253    -0.318732    -17.672672    0.401121    -3.985426    22.011444    -4.269185    6.334913    1.080201    -3.839788    -2.030368    5.877640    -3.859767    -0.762965    1.474926    3.729914    -5.420335    -2.171926    2.056897    -4.544116    12.370229    -4.603551    14.021390    0.000000    0.000000    0.000000    -4.789995    -0.471859    4.165259    8.662171    7.675292    3.245111    -4.846148    -8.393682    -12.693250    0.000000    0.000000    0.000000    
2.760106    86.389664    -17.934938    0.293163    -0.467238    -4.837039    -2.860209    -6.938036    1.981056    2.630968    -1.681621    0.751195    2.182036    9.667898    15.141163    -3.671896    6.715918    16.778320    17.200041    -2.025264    -6.122848    -18.323833    4.296365    -1.412117    -1.792496    -4.950725    -1.594253    -8.129651    -4.942609    -0.465761    -17.659668    0.392613    -3.983206    22.017971    -4.244952    6.327423    1.083648    -3.838034    -2.019310    5.883713    -3.858470    -0.769985    1.459251    3.791434    -5.689319    -2.139640    1.932697    -4.110085    12.317552    -4.591037    13.850042    0.000000    0.000000    0.000000    -4.793963    -0.473598    4.182081    8.671982    7.673305    3.253275    -4.830466    -8.394672    -12.701467    0.000000    0.000000    0.000000    
2.755147    86.389984    -17.939230    0.296303    -0.469962    -4.841076    -2.891945    -6.949295    1.977176    2.687561    -1.656994    0.750861    2.152281    9.666253    15.134718    -3.666856    6.724205    16.764502    17.143427    -2.093089    -6.081289    -18.313391    4.373227    -1.452428    -1.798949    -5.036568    -1.590766    -8.249342    -5.036146    -0.352092    -17.687788    0.396904    -3.987927    22.028877    -4.266716    6.341065    1.100202    -3.817514    -2.031801    5.860688    -3.836793    -0.758448    1.529289    3.710831    -5.526075    -2.294011    2.087731    -4.747998    12.167421    -4.644504    14.494403    0.000000    0.000000    0.000000    -4.788040    -0.473618    4.171844    8.660081    7.674187    3.264535    -4.839844    -8.391144    -12.702807    0.000000    0.000000    0.000000    
2.749455    86.389229    -17.946312    0.292087    -0.464190    -4.843810    -2.883223    -6.956786    1.973273    2.680019    -1.648848    0.749205    2.151310    9.668778    15.134667    -3.656214    6.732438    16.762606    17.166271    -2.022530    -6.116468    -18.356222    4.302756    -1.415386    -1.793203    -5.061708    -1.597542    -8.200894    -5.050304    -0.508423    -17.684933    0.393059    -3.979145    22.042458    -4.280354    6.334026    1.108620    -3.803031    -2.029816    5.849251    -3.822503    -0.766346    1.483295    3.711931    -5.409501    -2.185502    2.077707    -4.680222    12.102930    -4.688095    14.312546    0.000000    0.000000    0.000000    -4.779724    -0.485518    4.178794    8.664762    7.675452    3.254375    -4.855028    -8.380553    -12.710627    0.000000    0.000000    0.000000    
2.744674    86.389137    -17.950205    0.294204    -0.472980    -4.848579    -2.893131    -6.953461    1.977668    2.690379    -1.637119    0.750750    2.145174    9.673043    15.130312    -3.644473    6.729733    16.754637    17.135452    -2.085382    -6.081598    -18.340185    4.375868    -1.452384    -1.815867    -5.125920    -1.586503    -8.224250    -5.114373    -0.511096    -17.682411    0.389454    -3.985712    22.048014    -4.265098    6.329997    1.107777    -3.795619    -2.029968    5.866052    -3.815176    -0.765479    1.483193    3.719055    -5.418093    -2.185711    2.076271    -4.653750    12.102914    -4.688664    14.298679    0.000000    0.000000    0.000000    -4.780373    -0.479655    4.190758    8.666444    7.673708    3.247956    -4.846336    -8.385077    -12.700433    0.000000    0.000000    0.000000    
